<svg xmlns="http://www.w3.org/2000/svg" width="57.063" height="40" viewBox="0 0 57.063 40"><defs><style>.a{fill:#fff;}</style></defs><g transform="translate(28.532 20)"><g transform="translate(-28.532 -20)"><path class="a" d="M261.069,0A13.207,13.207,0,0,0,247.9,13.182v5.152h2.228V13.182A10.954,10.954,0,0,1,261.069,2.238h12.567v16.1h2.228V0Z" transform="translate(-241.574)"/><path class="a" d="M273.636,1349.4v3.33H250.128v-3.33H247.9v5.568h27.964V1349.4Z" transform="translate(-241.574 -1314.968)"/><g transform="translate(0 20.574)"><path class="a" d="M6.326,816.859a3.3,3.3,0,0,1-2.6,1.271C1.6,818.132,0,816.53,0,813.723c0-2.753,1.585-4.425,3.728-4.425a3.242,3.242,0,0,1,2.6,1.289V806.3h2.23v11.623H6.326Zm0-4.634a2.431,2.431,0,0,0-1.916-.959,2.473,2.473,0,0,0,0,4.9,2.427,2.427,0,0,0,1.916-.96Z" transform="translate(0 -806.3)"/><path class="a" d="M434.3,928.109a4.451,4.451,0,1,1,4.443,4.427A4.263,4.263,0,0,1,434.3,928.109Zm6.6,0a2.171,2.171,0,1,0-2.161,2.457A2.221,2.221,0,0,0,440.9,928.109Z" transform="translate(-423.218 -920.704)"/><path class="a" d="M864.86,923.8a3.877,3.877,0,0,1,3.327,1.534l-1.447,1.342a2.084,2.084,0,0,0-1.779-.906,2.454,2.454,0,0,0,0,4.9,2.134,2.134,0,0,0,1.779-.906l1.447,1.342a3.881,3.881,0,0,1-3.327,1.534,4.418,4.418,0,1,1,0-8.836Z" transform="translate(-838.445 -920.802)"/><path class="a" d="M1259.625,814.682l-1,1.079v2.161H1256.4V806.3h2.228v6.953l3.177-3.746h2.717l-3.327,3.815,3.432,4.6h-2.771Z" transform="translate(-1224.341 -806.3)"/><path class="a" d="M1624.758,923.8c2.508,0,4.216,1.881,4.216,4.634v.488h-6.254a2.267,2.267,0,0,0,2.422,1.952,3.443,3.443,0,0,0,2.248-.837l.975,1.429a5.194,5.194,0,0,1-3.468,1.169,4.417,4.417,0,1,1-.138-8.834Zm-2.074,3.623h4.146a1.95,1.95,0,0,0-2.075-1.865A2.024,2.024,0,0,0,1622.684,927.423Z" transform="translate(-1579.053 -920.802)"/><path class="a" d="M2017.293,850.425v-4.389H2015.9V844.1h1.393v-2.3h2.23v2.3h1.707v1.934h-1.707v3.8c0,.523.278.924.766.924a1.2,1.2,0,0,0,.766-.245l.469,1.674a2.736,2.736,0,0,1-1.848.541A2.106,2.106,0,0,1,2017.293,850.425Z" transform="translate(-1964.461 -840.894)"/></g></g></g></svg>